<svg xmlns="http://www.w3.org/2000/svg" xmlns:xlink="http://www.w3.org/1999/xlink" xmlns:sketch="http://www.bohemiancoding.com/sketch/ns" viewBox="0 0 100 125" version="1.1" x="0px" y="0px"><title>Supply and Demand Graph</title><desc>Created with Sketch.</desc><g stroke="none" stroke-width="1" fill="none" fill-rule="evenodd" sketch:type="MSPage"><g sketch:type="MSArtboardGroup"><path d="M14.5,83.5 L84.5,83.5" stroke="#000000" stroke-width="2" stroke-linecap="square" sketch:type="MSShapeGroup"/><path d="M14,83.5 L14,23.5" stroke="#000000" stroke-width="2" stroke-linecap="square" sketch:type="MSShapeGroup"/><path d="M13.1649845,15.7929967 C13.6784558,14.816423 14.511484,14.8174248 15.0244285,15.7929967 L18.8335787,23.0376386 C19.0884571,23.5223931 18.851777,23.9153643 18.2937344,23.9153643 L14.9281005,23.9153643 L9.89481377,23.9153643 C9.34226525,23.9153643 9.10463772,23.5153907 9.35583436,23.0376386 L13.1649845,15.7929967 Z" fill="#000000" sketch:type="MSShapeGroup"/><path d="M87.5276669,79.9303143 C88.0411382,78.9537407 88.8741663,78.9547424 89.3871109,79.9303143 L93.1962611,87.1749562 C93.4511395,87.6597108 93.2144593,88.0526819 92.6564167,88.0526819 L89.2907828,88.0526819 L84.2574961,88.0526819 C83.7049476,88.0526819 83.4673201,87.6527084 83.7185167,87.1749562 L87.5276669,79.9303143 Z" fill="#000000" sketch:type="MSShapeGroup" transform="translate(88.457682, 83.595000) rotate(-270.000000) translate(-88.457682, -83.595000) "/><path d="M22.5,28.5 C22.5,28.5 25.2084961,42.9575195 44.8706055,57.6147461 C64.5327148,72.2719727 81.5,72.5 81.5,72.5" stroke="#000000" stroke-width="1.5" stroke-linecap="square" sketch:type="MSShapeGroup"/><path d="M21,31 C21,31 23.7084961,45.4575195 43.3706055,60.1147461 C63.0327148,74.7719727 80,75 80,75" stroke="#000000" stroke-width="1.5" stroke-linecap="square" sketch:type="MSShapeGroup" transform="translate(50.500000, 53.000000) scale(-1, 1) translate(-50.500000, -53.000000) "/></g></g><text x="0" y="115" fill="#000000" font-size="5px" font-weight="bold" font-family="'Helvetica Neue', Helvetica, Arial-Unicode, Arial, Sans-serif">Created by Alicia Kranjc</text><text x="0" y="120" fill="#000000" font-size="5px" font-weight="bold" font-family="'Helvetica Neue', Helvetica, Arial-Unicode, Arial, Sans-serif">from the Noun Project</text></svg>